<svg xmlns="http://www.w3.org/2000/svg" xmlns:xlink="http://www.w3.org/1999/xlink" version="1.1" x="0px" y="0px" viewBox="0 0 100 125" style="enable-background:new 0 0 100 100;" xml:space="preserve"><rect x="41.1892471" y="40.8662033" width="6.4475698" height="19.3592243"/><rect x="54.0843887" y="40.8662033" width="6.458602" height="19.3592243"/><path d="M87.668045,21H15.2606249c-3.4970884,0-6.3319511,2.8348637-6.3319511,6.3319511v46.1728554  c0,3.4970856,2.8348627,6.3319473,6.3319511,6.3319473H87.668045c3.4970932,0,6.331955-2.8348618,6.331955-6.3319473V27.3319511  C94,23.8348637,91.1651382,21,87.668045,21z M15.2606249,79.0726395c-3.0691862,0-5.5678377-2.4986496-5.5678377-5.5678329  V27.3319511c0-3.0691853,2.4986515-5.5678368,5.5678377-5.5678368h70.6244888c2.8781586,0,5.2520065,2.1955509,5.5398254,4.9998512  c0.0101776,0.0942402,0.0178299,0.1884785,0.0203629,0.2827187c0.0050964,0.0942383,0.0076523,0.1884785,0.0076523,0.2852669  v46.1728554c0,0.0967712-0.0025558,0.1910248-0.0076523,0.2852631c-0.002533,0.0942383-0.0101852,0.1884842-0.0203629,0.2827225  c-0.2878189,2.8042984-2.6616669,4.9998474-5.5398254,4.9998474H15.2606249z"/><text x="0" y="115" fill="#000000" font-size="5px" font-weight="bold" font-family="'Helvetica Neue', Helvetica, Arial-Unicode, Arial, Sans-serif">Created by Luis Montero Nimis</text><text x="0" y="120" fill="#000000" font-size="5px" font-weight="bold" font-family="'Helvetica Neue', Helvetica, Arial-Unicode, Arial, Sans-serif">from the Noun Project</text></svg>