<svg xmlns="http://www.w3.org/2000/svg" xmlns:xlink="http://www.w3.org/1999/xlink" version="1.1" x="0px" y="0px" viewBox="0 0 100 125" style="enable-background:new 0 0 100 100;" xml:space="preserve"><path d="M85.8032303,22.0645161H13.1967707C9.7743416,22.0645161,7,24.8077717,7,28.1918545v44.6808014  C7,76.2567444,9.7743416,79,13.1967707,79h72.6064606C89.2256622,79,92,76.2567444,92,72.8726578V28.1918545  C92,24.8077717,89.2256622,22.0645161,85.8032303,22.0645161z M36.4134903,60.8841629V40.4268265l22.9325523,10.1054306  L36.4134903,60.8841629z M91.2521973,72.8726578c0,2.9700089-2.4453049,5.3879166-5.448967,5.3879166h-0.5359344  c1.9318237-1.0376587,3.2429657-3.0612106,3.2429657-5.3879166V28.1918545c0-2.3267136-1.311142-4.3502712-3.2429657-5.3879166  h0.5359344c3.0036621,0,5.448967,2.4179096,5.448967,5.3879166V72.8726578z"/><text x="0" y="115" fill="#000000" font-size="5px" font-weight="bold" font-family="'Helvetica Neue', Helvetica, Arial-Unicode, Arial, Sans-serif">Created by Luis Montero Nimis</text><text x="0" y="120" fill="#000000" font-size="5px" font-weight="bold" font-family="'Helvetica Neue', Helvetica, Arial-Unicode, Arial, Sans-serif">from the Noun Project</text></svg>