<svg xmlns="http://www.w3.org/2000/svg" xmlns:xlink="http://www.w3.org/1999/xlink" version="1.1" x="0px" y="0px" viewBox="0 0 100 125" style="enable-background:new 0 0 100 100;" xml:space="preserve"><polygon points="-28.4099731,140.8200073 -28.4099731,140.9599609 -28.7299805,140.8200073 "/><polygon points="55.5610123,39.8872261 55.5610123,43.6840553 63.9085922,39.8710861 63.9085922,58.6181335 55.5610123,54.8967094   55.5610123,58.6289139 34.789032,49.3711777 "/><path d="M86.8791122,20.5H16.1167641c-3.417635,0-6.1880903,2.7704563-6.1880903,6.1880913v45.1238136  C9.9286737,75.2295456,12.6991291,78,16.1167641,78h70.7623444c3.4176331,0,6.1880875-2.7704544,6.1880875-6.1880951V26.6880913  C93.0671997,23.2704563,90.2967453,20.5,86.8791122,20.5z M16.1167641,77.2532501  c-2.9994555,0-5.4413376-2.4418869-5.4413376-5.4413452V26.6880913c0-2.9994564,2.4418821-5.4413376,5.4413376-5.4413376h69.019928  c2.812767,0,5.1326828,2.1456699,5.4139557,4.8862553c0.0099564,0.0921001,0.0174255,0.1841984,0.0199051,0.2762966  c0.004982,0.0920982,0.0074768,0.1841965,0.0074768,0.2787857v45.1238136c0,0.0945816-0.0024948,0.1866913-0.0074768,0.2787933  c-0.0024796,0.0920944-0.0099487,0.1841965-0.0199051,0.2762909c-0.2812729,2.7405853-2.6011887,4.886261-5.4139557,4.886261  H16.1167641z"/><text x="0" y="115" fill="#000000" font-size="5px" font-weight="bold" font-family="'Helvetica Neue', Helvetica, Arial-Unicode, Arial, Sans-serif">Created by Luis Montero Nimis</text><text x="0" y="120" fill="#000000" font-size="5px" font-weight="bold" font-family="'Helvetica Neue', Helvetica, Arial-Unicode, Arial, Sans-serif">from the Noun Project</text></svg>