<?xml version="1.0" encoding="utf-8"?><!DOCTYPE svg PUBLIC "-//W3C//DTD SVG 1.1//EN" "http://www.w3.org/Graphics/SVG/1.1/DTD/svg11.dtd"><svg version="1.1" xmlns:rdf="http://www.w3.org/1999/02/22-rdf-syntax-ns#" xmlns:cc="http://creativecommons.org/ns#" xmlns:sodipodi="http://sodipodi.sourceforge.net/DTD/sodipodi-0.dtd" xmlns:dc="http://purl.org/dc/elements/1.1/" xmlns:inkscape="http://www.inkscape.org/namespaces/inkscape" xmlns:svg="http://www.w3.org/2000/svg" xmlns="http://www.w3.org/2000/svg" xmlns:xlink="http://www.w3.org/1999/xlink" x="0px" y="0px" viewBox="-0.123 28.66 100 53.35" enable-background="new -0.123 28.66 100 42.68" xml:space="preserve"><path d="
	M24.224,71.009c-0.372-0.431-0.519-1.032-1.848-7.586c-1.099-5.416-1.559-7.253-1.864-7.442c-0.096-0.06-0.739,0.037-1.429,0.213
	c-0.853,0.22-1.63,0.283-2.428,0.199c-1.347-0.139-1.922-0.508-3.846-2.455l-1.249-1.262l-3.211-0.283
	c-1.767-0.156-4.226-0.376-5.466-0.491c-2.899-0.266-3.588-0.607-2.552-1.261C0.97,50.239,2.604,50,7.499,49.594l4.309-0.357
	l0.499-1.056c0.715-1.514,2.425-3.281,3.876-4.008c0.664-0.333,2.283-0.286,2.511-0.286c0.836,0.337,1.521,0.836,1.895,1.05
	c0.056-0.152,0.824-3.493,1.706-7.423c0.882-3.931,1.771-7.525,1.974-7.989c0.833-1.902,1.374-0.867,2.669,5.111
	c1.1,5.075,1.654,7.079,2.384,8.624c0.612,1.295,2.026,2.888,2.564,2.888c0.196,0,0.845-0.279,1.441-0.621
	c1.12-0.642,1.754-0.687,3.737-0.267c0.536,0.115,0.716,0.032,1.486-0.752c1.319-1.329,2.509-3.46,4.157-7.452
	c0.104-0.251,0.273-0.406,0.376-0.343c0.104,0.064,0.831,1.163,1.617,2.443c2.505,4.078,2.98,4.509,5.726,5.2
	c0.926,0.231,3.112,0.905,4.855,1.494c2.818,0.952,3.861,1.178,5.115,1.111c0.546-0.032,0.801-0.878,1.901-6.329
	c0.932-4.619,1.465-6.602,1.706-6.359c0.052,0.054,0.62,2.06,1.26,4.46c1.137,4.264,1.467,5.231,1.782,5.231
	c0.085,0,0.641-0.863,1.231-1.919c0.593-1.055,1.185-1.954,1.315-1.998c0.305-0.102,1.125,1.532,2.516,5.001
	c0.604,1.508,1.243,2.902,1.421,3.099c0.402,0.446,0.696,0.346,2.086-0.71l1.108-0.842l1.603,1.094
	c0.917,0.627,1.727,1.046,1.895,0.981c0.161-0.06,1.003-1.302,1.873-2.756c0.867-1.455,1.721-2.672,1.893-2.707
	c0.223-0.044,0.574,0.455,1.193,1.688c1.372,2.753,2.582,3.495,4.242,4.525c9.844,0.67,10.455,0.769,10.455,1.686
	c0,0.655-0.416,0.727-5.748,0.989c-2.397,0.118-4.829,0.264-5.4,0.324c-1.447,0.825-2.414,2.428-3.322,3.627
	c-0.544,0.995-1.036,1.812-1.094,1.812c-0.058,0.001-0.638-0.69-1.286-1.536c-0.649-0.846-1.482-1.873-1.85-2.282
	c-0.657-0.73-0.698-0.744-2.108-0.744c-1.598,0-4.664,0.48-5.436,0.852c-0.304,0.146-1.102,1.21-2.042,2.721
	c-0.849,1.364-1.626,2.615-1.729,2.778c-0.26,0.415-0.609,0.042-1.896-2.024c-0.564-0.905-1.15-1.647-1.301-1.647
	c-0.198,0-0.533,1.28-1.219,4.665c-1.019,5.028-1.323,6.185-1.657,6.293c-0.298,0.096-0.536-0.834-1.362-5.301
	c-0.845-4.563-1.32-6.287-1.91-6.922c-0.682-0.732-2.112-0.52-5.134,0.767c-3.036,1.292-3.707,1.388-5.532,0.788
	c-1.193-0.391-1.431-0.417-1.716-0.181c-0.437,0.363-1.931,2.602-3.319,4.972c-0.614,1.05-1.281,2.112-1.482,2.36l-0.365,0.452
	l-1.869-3.637c-2.563-4.985-2.958-5.355-4.959-4.648c-1.146,0.405-1.63,0.267-3.14-0.904c-0.701-0.544-1.378-0.987-1.505-0.987
	c-0.342,0-0.767,0.545-1.544,1.985c-0.899,1.665-1.28,2.949-2.701,9.112c-1.323,5.735-1.425,6.064-1.971,6.357
	C24.74,71.435,24.572,71.411,24.224,71.009L24.224,71.009z"/><text x="-0.123" y="86.34" fill="#000000" font-size="5px" font-weight="bold" font-family="'Helvetica Neue', Helvetica, Arial-Unicode, Arial, Sans-serif">Created by Alec Dhuse</text><text x="-0.123" y="91.34" fill="#000000" font-size="5px" font-weight="bold" font-family="'Helvetica Neue', Helvetica, Arial-Unicode, Arial, Sans-serif">from the Noun Project</text></svg>